<svg width="20" height="20" viewBox="0 0 20 20" fill="currentColor" xmlns="http://www.w3.org/2000/svg">
  <rect x="2" y="2" width="3" height="3" rx="0.5" />
  <rect x="6.33" y="2" width="3" height="3" rx="0.5" />
  <rect x="10.66" y="2" width="3" height="3" rx="0.5" />
  <rect x="15" y="2" width="3" height="3" rx="0.5" />
  <rect x="2" y="6.33" width="3" height="3" rx="0.5" />
  <rect x="6.33" y="6.33" width="3" height="3" rx="0.5" />
  <rect x="10.66" y="6.33" width="3" height="3" rx="0.5" />
  <rect x="15" y="6.33" width="3" height="3" rx="0.5" />
  <rect x="2" y="10.66" width="3" height="3" rx="0.5" />
  <rect x="6.33" y="10.66" width="3" height="3" rx="0.5" />
  <rect x="10.66" y="10.66" width="3" height="3" rx="0.5" />
  <rect x="15" y="10.66" width="3" height="3" rx="0.5" />
  <rect x="2" y="15" width="3" height="3" rx="0.5" />
  <rect x="6.33" y="15" width="3" height="3" rx="0.5" />
  <rect x="10.66" y="15" width="3" height="3" rx="0.5" />
  <rect x="15" y="15" width="3" height="3" rx="0.5" />
</svg>
